# xmcd CD database file
#
# Track frame offsets:
#	150
#	16884
#	30960
#	46645
#	61000
#	76792
#	94875
#	110386
#	124823
#	138886
#	151727
#	162204
#
# Disc length: 2373 seconds
#
# Revision: 1
# Processed by: cddbd v1.5.2PL0 Copyright (c) Steve Scherf et al.
# Submitted via: CDex 1.70
#
DISCID=7a09430c
DTITLE=Sportfreunde Stiller - New York, Rio, Rosenheim
DYEAR=2013
DGENRE=Indie-Rock
TTITLE0=Hymne auf dich
TTITLE1=Wenn Pferde schlafen
TTITLE2=Applaus, Applaus
TTITLE3=New York, Rio, Rosenheim
TTITLE4=Unter Unten!
TTITLE5=Es muss was wunderbares sein (von mir geliebt zu werden)
TTITLE6=Clowns and Helden
TTITLE7=Festungen and Burgen
TTITLE8=Wieder Kein Hit
TTITLE9=Lederjacke
TTITLE10=Lets did it!
TTITLE11=Wunder fragen nicht
EXTD=YEAR: 2013
EXTT0=
EXTT1=
EXTT2=
EXTT3=
EXTT4=
EXTT5=
EXTT6=
EXTT7=
EXTT8=
EXTT9=
EXTT10=
EXTT11=
PLAYORDER=
